<svg width="232" height="232" viewBox="0 0 232 232" fill="none" xmlns="http://www.w3.org/2000/svg">
<circle cx="40.5" cy="51.7803" r="30" stroke="black" stroke-width="15"/>
<path d="M183.774 95.7007C186.126 96.0804 188.54 96.2807 190.999 96.2808C193.17 96.2807 195.305 96.1228 197.394 95.8257L192.496 101.008C176.502 117.932 164.818 138.458 158.434 160.852L157.546 163.964C155.794 159.766 153.424 155.889 150.55 152.449C157.434 131.389 168.758 112.033 183.774 95.7007ZM82.5072 67.0737C101.567 63.0265 121.206 62.616 140.394 65.8413L139.402 69.3228C138.81 71.3977 138.166 73.4548 137.478 75.4937C118.184 72.425 98.4287 73.2813 79.4066 78.0552L76.3363 78.8257C78.9391 75.2689 81.031 71.3158 82.5072 67.0737ZM82.7338 25.9292C105.387 31.3191 129.007 31.1745 151.592 25.5063L154.662 24.7349C152.06 28.2917 149.968 32.2447 148.492 36.4868C126.56 41.1435 103.862 40.989 81.9672 36.0161C80.2863 31.6822 77.9546 27.6733 75.0902 24.1099L82.7338 25.9292Z" fill="#5FBBC7"/>
<path d="M161.303 202.804L161.596 203.818C163.107 208.982 164.908 214.044 166.982 218.98H150.847C149.365 215.02 148.039 210.994 146.877 206.911L137.846 175.195L152.272 171.087L161.303 202.804ZM83.7498 162.659C94.1052 144.723 117.04 138.579 134.975 148.933C143.743 153.996 149.692 162.065 152.274 171.086L137.848 175.193C136.296 169.79 132.729 164.957 127.475 161.924C116.714 155.711 102.953 159.398 96.7401 170.159C90.5271 180.921 94.2141 194.682 104.975 200.895C115.474 206.957 128.826 203.594 135.241 193.434L139.663 208.966L140.003 210.141C140.024 210.215 140.046 210.289 140.068 210.363C128.343 220.016 111.403 221.927 97.4754 213.886C79.5397 203.53 73.3947 180.595 83.7498 162.659Z" fill="black"/>
<path d="M158.75 32.7557C169.105 14.8201 192.039 8.67522 209.975 19.0301C227.911 29.3854 234.057 52.3198 223.702 70.2557C213.346 88.1914 190.411 94.3375 172.475 83.9823C170.657 82.9324 168.961 81.751 167.39 80.4608C167.686 79.4925 167.974 78.5214 168.252 77.5467L172.233 63.576C174.115 66.5435 176.721 69.1133 179.975 70.992C190.737 77.2052 204.498 73.517 210.712 62.7557C216.924 51.9942 213.237 38.2335 202.475 32.0204C191.714 25.8076 177.953 29.4945 171.74 40.2557C170.395 42.5844 169.515 45.0537 169.069 47.5565L154.596 43.4315C155.404 39.7726 156.777 36.1732 158.75 32.7557Z" fill="black"/>
<path d="M158.75 32.756C169.105 14.8204 192.04 8.67546 209.975 19.0304C227.911 29.3857 234.057 52.3201 223.702 70.256C213.346 88.1916 190.411 94.3377 172.475 83.9825C170.657 82.9327 168.961 81.7512 167.39 80.461C167.686 79.4927 167.974 78.5216 168.252 77.547L172.233 63.5763C174.115 66.5437 176.721 69.1136 179.975 70.9923C190.737 77.2053 204.498 73.5172 210.712 62.756C216.924 51.9945 213.237 38.2338 202.475 32.0206C191.714 25.8079 177.953 29.4947 171.74 40.256C170.396 42.5847 169.515 45.054 169.069 47.5567L167.236 47.0343L169.007 47.5392L161.039 75.4894C154.496 98.4398 142.827 119.584 126.937 137.34C123.436 136.466 119.772 136 116 136C112.828 136 109.734 136.329 106.748 136.953L113.138 130.192L113.872 129.409C129.215 112.929 140.438 93.0421 146.614 71.378L154.582 43.4259L154.596 43.4298C155.404 39.7715 156.777 36.1729 158.75 32.756Z" fill="black"/>
</svg>
