<svg width="1047" height="232" viewBox="0 0 1047 232" fill="none" xmlns="http://www.w3.org/2000/svg">
<circle cx="40.5" cy="51.7802" r="30" stroke="black" stroke-width="15"/>
<path d="M183.774 95.7006C186.126 96.0803 188.54 96.2806 190.999 96.2806C193.17 96.2806 195.305 96.1227 197.394 95.8256L192.496 101.008C176.502 117.932 164.818 138.458 158.434 160.852L157.546 163.964C155.794 159.765 153.424 155.889 150.55 152.449C157.434 131.388 168.758 112.033 183.774 95.7006ZM82.5072 67.0736C101.567 63.0264 121.206 62.6159 140.394 65.8412L139.402 69.3226C138.81 71.3975 138.166 73.4546 137.478 75.4935C118.184 72.4248 98.4287 73.2811 79.4066 78.0551L76.3363 78.8256C78.9391 75.2688 81.031 71.3157 82.5072 67.0736ZM82.7338 25.9291C105.387 31.319 129.007 31.1744 151.592 25.5062L154.662 24.7347C152.06 28.2916 149.968 32.2445 148.492 36.4867C126.56 41.1434 103.862 40.9888 81.9672 36.016C80.2863 31.682 77.9546 27.6731 75.0902 24.1097L82.7338 25.9291Z" fill="#5FBBC7"/>
<path d="M161.303 202.803L161.596 203.818C163.107 208.982 164.908 214.043 166.982 218.98H150.847C149.365 215.02 148.039 210.994 146.877 206.911L137.846 175.195L152.272 171.087L161.303 202.803ZM83.7498 162.659C94.1052 144.723 117.04 138.578 134.975 148.933C143.743 153.996 149.692 162.065 152.274 171.086L137.848 175.193C136.296 169.789 132.729 164.957 127.475 161.924C116.714 155.711 102.953 159.398 96.7401 170.159C90.5271 180.92 94.2141 194.682 104.975 200.895C115.474 206.957 128.826 203.594 135.241 193.434L139.663 208.966L140.003 210.14C140.024 210.215 140.046 210.289 140.068 210.363C128.343 220.015 111.403 221.926 97.4754 213.886C79.5397 203.53 73.3947 180.595 83.7498 162.659Z" fill="black"/>
<path d="M158.75 32.7558C169.105 14.8202 192.039 8.67534 209.975 19.0303C227.911 29.3855 234.057 52.3199 223.702 70.2558C213.346 88.1915 190.411 94.3377 172.475 83.9824C170.657 82.9325 168.961 81.7511 167.39 80.4609C167.686 79.4926 167.974 78.5215 168.252 77.5469L172.233 63.5762C174.115 66.5436 176.721 69.1134 179.975 70.9922C190.737 77.2053 204.498 73.5172 210.712 62.7558C216.924 51.9943 213.237 38.2336 202.475 32.0205C191.714 25.8077 177.953 29.4946 171.74 40.2558C170.395 42.5846 169.515 45.0538 169.069 47.5566L154.596 43.4316C155.404 39.7727 156.777 36.1734 158.75 32.7558Z" fill="black"/>
<path d="M158.75 32.7558C169.105 14.8202 192.04 8.67534 209.975 19.0303C227.911 29.3856 234.057 52.32 223.702 70.2558C213.346 88.1915 190.411 94.3376 172.475 83.9824C170.657 82.9325 168.961 81.7511 167.39 80.4609C167.686 79.4926 167.974 78.5215 168.252 77.5469L172.233 63.5762C174.115 66.5435 176.721 69.1134 179.975 70.9922C190.737 77.2052 204.498 73.5171 210.712 62.7558C216.924 51.9944 213.237 38.2336 202.475 32.0205C191.714 25.8077 177.953 29.4946 171.74 40.2558C170.396 42.5845 169.515 45.0538 169.069 47.5566L167.236 47.0342L169.007 47.539L161.039 75.4892C154.496 98.4396 142.827 119.584 126.937 137.34C123.436 136.465 119.772 136 116 136C112.828 136 109.734 136.329 106.748 136.953L113.138 130.191L113.872 129.409C129.215 112.929 140.438 93.0419 146.614 71.3779L154.582 43.4258L154.596 43.4297C155.404 39.7714 156.777 36.1728 158.75 32.7558Z" fill="black"/>
<path d="M346.674 177.6C338.78 177.6 331.42 176.16 324.594 173.28C317.767 170.293 311.794 166.187 306.674 160.96C301.554 155.627 297.554 149.493 294.674 142.56C291.9 135.627 290.514 128.213 290.514 120.32C290.514 112.32 291.9 104.907 294.674 98.08C297.554 91.1467 301.5 85.0667 306.514 79.84C311.634 74.6133 317.554 70.56 324.274 67.68C331.1 64.8 338.46 63.36 346.354 63.36C354.247 63.36 361.554 64.8 368.274 67.68C375.1 70.56 381.074 74.6133 386.194 79.84C391.314 85.0667 395.314 91.1467 398.194 98.08C401.074 105.013 402.514 112.48 402.514 120.48C402.514 128.373 401.074 135.787 398.194 142.72C395.314 149.653 391.314 155.733 386.194 160.96C381.18 166.187 375.26 170.293 368.434 173.28C361.714 176.16 354.46 177.6 346.674 177.6ZM346.354 163.2C354.354 163.2 361.34 161.387 367.314 157.76C373.394 154.027 378.194 148.96 381.714 142.56C385.234 136.053 386.994 128.64 386.994 120.32C386.994 114.133 385.98 108.48 383.954 103.36C381.927 98.1333 379.1 93.6 375.474 89.76C371.847 85.92 367.58 82.9867 362.674 80.96C357.767 78.8267 352.327 77.76 346.354 77.76C338.46 77.76 331.474 79.5733 325.394 83.2C319.42 86.8267 314.674 91.84 311.154 98.24C307.74 104.64 306.034 112 306.034 120.32C306.034 126.507 306.994 132.267 308.914 137.6C310.94 142.827 313.714 147.36 317.234 151.2C320.86 154.933 325.127 157.867 330.034 160C335.047 162.133 340.487 163.2 346.354 163.2ZM470.185 177.6C464.425 177.6 459.198 176.427 454.505 174.08C449.918 171.627 446.238 168.267 443.465 164C440.692 159.733 439.145 154.88 438.825 149.44V126.56C439.145 121.013 440.692 116.16 443.465 112C446.345 107.733 450.078 104.427 454.665 102.08C459.358 99.6267 464.532 98.4 470.185 98.4C477.118 98.4 483.358 100.16 488.905 103.68C494.558 107.2 498.985 111.947 502.185 117.92C505.385 123.893 506.985 130.613 506.985 138.08C506.985 145.547 505.385 152.267 502.185 158.24C498.985 164.213 494.558 168.96 488.905 172.48C483.358 175.893 477.118 177.6 470.185 177.6ZM430.185 207.84V100H444.585V120L441.865 138.4L444.585 156.96V207.84H430.185ZM467.785 164C472.585 164 476.798 162.88 480.425 160.64C484.052 158.4 486.932 155.36 489.065 151.52C491.198 147.573 492.265 143.04 492.265 137.92C492.265 132.907 491.198 128.427 489.065 124.48C486.932 120.533 484.052 117.493 480.425 115.36C476.798 113.12 472.638 112 467.945 112C463.145 112 458.932 113.12 455.305 115.36C451.678 117.493 448.852 120.533 446.825 124.48C444.798 128.427 443.785 132.96 443.785 138.08C443.785 143.093 444.745 147.573 446.665 151.52C448.692 155.36 451.518 158.4 455.145 160.64C458.878 162.88 463.092 164 467.785 164ZM568.11 177.6C560.537 177.6 553.71 175.893 547.63 172.48C541.55 168.96 536.75 164.213 533.23 158.24C529.71 152.267 527.95 145.493 527.95 137.92C527.95 130.453 529.657 123.733 533.07 117.76C536.59 111.787 541.283 107.093 547.15 103.68C553.123 100.16 559.79 98.4 567.15 98.4C574.19 98.4 580.377 100 585.71 103.2C591.15 106.4 595.363 110.827 598.35 116.48C601.443 122.133 602.99 128.533 602.99 135.68C602.99 136.747 602.937 137.92 602.83 139.2C602.723 140.373 602.51 141.76 602.19 143.36H538.03V131.36H594.51L589.23 136C589.23 130.88 588.323 126.56 586.51 123.04C584.697 119.413 582.137 116.64 578.83 114.72C575.523 112.693 571.523 111.68 566.83 111.68C561.923 111.68 557.603 112.747 553.87 114.88C550.137 117.013 547.257 120 545.23 123.84C543.203 127.68 542.19 132.213 542.19 137.44C542.19 142.773 543.257 147.467 545.39 151.52C547.523 155.467 550.563 158.56 554.51 160.8C558.457 162.933 562.99 164 568.11 164C572.377 164 576.27 163.253 579.79 161.76C583.417 160.267 586.51 158.027 589.07 155.04L598.35 164.48C594.723 168.747 590.243 172 584.91 174.24C579.683 176.48 574.083 177.6 568.11 177.6ZM682.051 176V131.68C682.051 125.92 680.238 121.173 676.611 117.44C672.985 113.707 668.291 111.84 662.531 111.84C658.691 111.84 655.278 112.693 652.291 114.4C649.305 116.107 646.958 118.453 645.251 121.44C643.545 124.427 642.691 127.84 642.691 131.68L636.771 128.32C636.771 122.56 638.051 117.44 640.611 112.96C643.171 108.48 646.745 104.96 651.331 102.4C655.918 99.7333 661.091 98.4 666.851 98.4C672.611 98.4 677.678 99.84 682.051 102.72C686.531 105.6 690.051 109.387 692.611 114.08C695.171 118.667 696.451 123.573 696.451 128.8V176H682.051ZM628.291 176V100H642.691V176H628.291ZM719.948 176L765.388 64.96H776.268L821.548 176H805.228L767.948 82.08H773.548L735.948 176H719.948ZM741.548 150.88V137.76H799.948V150.88H741.548ZM846.554 176V100H860.954V176H846.554ZM860.954 132.64L855.514 130.24C855.514 120.533 857.754 112.8 862.234 107.04C866.714 101.28 873.167 98.4 881.594 98.4C885.434 98.4 888.9 99.0933 891.994 100.48C895.087 101.76 897.967 103.947 900.634 107.04L891.194 116.8C889.594 115.093 887.834 113.867 885.914 113.12C883.994 112.373 881.754 112 879.194 112C873.86 112 869.487 113.707 866.074 117.12C862.66 120.533 860.954 125.707 860.954 132.64ZM920.685 176V100H935.085V176H920.685ZM972.045 176V130.08C972.045 124.427 970.285 120 966.765 116.8C963.352 113.493 959.032 111.84 953.805 111.84C950.285 111.84 947.138 112.587 944.365 114.08C941.592 115.573 939.352 117.653 937.645 120.32C935.938 122.987 935.085 126.187 935.085 129.92L929.165 127.04C929.165 121.28 930.392 116.267 932.845 112C935.405 107.733 938.872 104.427 943.245 102.08C947.618 99.6267 952.525 98.4 957.965 98.4C963.298 98.4 968.098 99.5733 972.365 101.92C976.738 104.267 980.152 107.573 982.605 111.84C985.165 116.107 986.445 121.173 986.445 127.04V176H972.045ZM1023.41 176V130.08C1023.41 124.427 1021.65 120 1018.13 116.8C1014.71 113.493 1010.45 111.84 1005.33 111.84C1001.81 111.84 998.605 112.587 995.725 114.08C992.952 115.573 990.712 117.653 989.005 120.32C987.298 122.987 986.445 126.187 986.445 129.92L978.285 127.04C978.605 121.173 980.152 116.16 982.925 112C985.805 107.733 989.485 104.427 993.965 102.08C998.445 99.6267 1003.35 98.4 1008.69 98.4C1014.23 98.4 1019.19 99.5733 1023.57 101.92C1027.94 104.267 1031.41 107.573 1033.97 111.84C1036.63 116.107 1037.97 121.227 1037.97 127.2V176H1023.41Z" fill="black"/>
</svg>
